<svg version="1.1" id="Layer_1" xmlns="http://www.w3.org/2000/svg" x="0" y="0" viewBox="0 0 24 24" style="enable-background:new 0 0 24 24" xml:space="preserve"><style>.st1{fill:url(#SVGID_00000000937983290609729220000006591080521188925627_)}.st2{fill:url(#SVGID_00000060736319366892391960000010893697317098301574_)}.st3{fill:url(#SVGID_00000078729287569411796010000014200824804170432900_)}.st4{fill:url(#SVGID_00000072996085434178248090000004991115036582375300_)}.st5{fill:url(#SVGID_00000093867167978739313710000017840616299092914310_)}.st6{fill:url(#SVGID_00000166654990085698848030000012599359457244538545_)}.st7{fill:url(#SVGID_00000135655068304073263390000014015373817909082031_)}.st8{fill:url(#SVGID_00000151524593165180152120000006022920388738889896_)}.st9{fill:url(#SVGID_00000075884494020733206520000006793634835197833137_)}.st10{fill:url(#SVGID_00000003804967332923783130000011617833459166397063_)}</style><linearGradient id="SVGID_1_" gradientUnits="userSpaceOnUse" x1="12.1451" y1="5.3681" x2="12.1451" y2="19.5535"><stop offset="0" style="stop-color:#fff"/><stop offset=".2589" style="stop-color:#00e22c"/><stop offset=".6309" style="stop-color:#00aeb1"/></linearGradient><path d="m16.88 4.77-4.74 3.65L7.4 4.77l-4.09 2.3.64.53v3.24l2.96 2.47v-1.29l-1.97-1.64V8.45l2.8 2.38v6.16l4.45 3.41 4.63-3.45v-6.43l2.26-1.87v1.74l-1.43 1.19v1.29l2.42-2.02V7.82l.91-.75-4.1-2.3zm-5.25 14.04-2.89-2.2v-2.13l2.89 2.3v2.03zm.03-3.27-2.93-2.32v-2.85L5.04 7.23l2.27-1.27 4.35 3.34v6.24zm4.17.92-3.17 2.36v-1.46l-.8.03.8-.58v-.01l3.17-2.46v2.12zm0-6.41v3.03l-3.17 2.46V9.87l-.88.04.88-.63 4.31-3.32 2.26 1.27-3.4 2.82z" style="fill:url(#SVGID_1_)"/></svg>