<svg version="1.1" id="Layer_1" xmlns="http://www.w3.org/2000/svg" x="0" y="0" viewBox="0 0 24 24" style="enable-background:new 0 0 24 24" xml:space="preserve"><style>.st1{fill:url(#SVGID_00000166678111341643850450000017830534503576673964_)}.st2{fill:url(#SVGID_00000035511770827940803550000002822601135680471466_)}.st3{fill:url(#SVGID_00000149345293927566635540000013201567749864425896_)}.st4{fill:url(#SVGID_00000018207087124527402630000010303197750558649008_)}.st5{fill:url(#SVGID_00000026132236401400660030000003854727749113559704_)}.st6{fill:url(#SVGID_00000003082232325431580840000001785095896784201397_)}.st7{fill:url(#SVGID_00000039104094756807774050000005779036816779095462_)}.st8{fill:url(#SVGID_00000069369402757430931490000004626872421597409205_)}.st9{fill:url(#SVGID_00000139983326126664715910000008624354810933310126_)}.st10{fill:url(#SVGID_00000049198669918078735920000015291081121224661642_)}</style><linearGradient id="SVGID_1_" gradientUnits="userSpaceOnUse" x1="16.0948" y1="3.2649" x2="7.0046" y2="18.698"><stop offset="0" style="stop-color:#fff"/><stop offset=".0235" style="stop-color:#fff4f8"/><stop offset=".0646" style="stop-color:#ffd7e5"/><stop offset=".1185" style="stop-color:#ffa8c6"/><stop offset=".1823" style="stop-color:#ff679d"/><stop offset=".241" style="stop-color:#ff2672"/><stop offset="1" style="stop-color:#ae0166"/></linearGradient><path d="M13.97 8.94c.61 0 .82.31.82.74 0 .44-.23.94-.98.94h-3.54l.22-1.67h3.48m0-.94H9.66l-.1.81-.22 1.67-1.84 1.04 2.76.01h3.55c1.13 0 1.91-.77 1.91-1.87 0-1.01-.69-1.66-1.75-1.66z" style="fill:url(#SVGID_1_)"/><linearGradient id="SVGID_00000060749595474365847460000015723300419512409771_" gradientUnits="userSpaceOnUse" x1="11.7364" y1="1.0731" x2="3.5497" y2="14.9722"><stop offset="0" style="stop-color:#fff"/><stop offset=".0235" style="stop-color:#fff4f8"/><stop offset=".0646" style="stop-color:#ffd7e5"/><stop offset=".1185" style="stop-color:#ffa8c6"/><stop offset=".1823" style="stop-color:#ff679d"/><stop offset=".241" style="stop-color:#ff2672"/><stop offset="1" style="stop-color:#ae0166"/></linearGradient><path style="fill:url(#SVGID_00000060749595474365847460000015723300419512409771_)" d="m6.55 7.08.28-2.28h-.97l-.11.85-1.47 11.83-.13 1.09h.97l.24-1.89z"/><linearGradient id="SVGID_00000152232851247586921550000003548344902619238575_" gradientUnits="userSpaceOnUse" x1="18.016" y1="4.7718" x2="9.8293" y2="18.6709"><stop offset="0" style="stop-color:#fff"/><stop offset=".0235" style="stop-color:#fff4f8"/><stop offset=".0646" style="stop-color:#ffd7e5"/><stop offset=".1185" style="stop-color:#ffa8c6"/><stop offset=".1823" style="stop-color:#ff679d"/><stop offset=".241" style="stop-color:#ff2672"/><stop offset="1" style="stop-color:#ae0166"/></linearGradient><path style="fill:url(#SVGID_00000152232851247586921550000003548344902619238575_)" d="M19.26 17.26c-.02-.09-.07-.27 0-.79l.22-1.7c.14-1.18-.14-2.2-.77-2.95.83-.67 1.47-1.74 1.47-3.25 0-2.4-1.56-3.77-4.28-3.77H8.02l-.11.97h8c2.1 0 3.31.91 3.31 2.8 0 1.87-1.21 2.81-2.3 3.1-.02.01-.02.03 0 .04 1.14.4 1.79 1.42 1.61 2.94l-.22 1.7c-.09.67-.02.97.02 1.16l.04.1H14.1c-.05-.11-.05-.27-.01-.56l.17-1.34c.16-1.27-.24-2.02-1.58-2.02H9.82l-.48 3.91H6.45l-.12.97H10.2l.11-.85.38-3.06h2c.36 0 .52.07.56.12.05.06.12.3.06.81l-.17 1.33c-.04.33-.07.71.09 1.08l.26.58H19.88l-.56-1.13-.06-.19z"/></svg>