<svg version="1.1" id="Layer_1" xmlns="http://www.w3.org/2000/svg" x="0" y="0" viewBox="0 0 24 24" style="enable-background:new 0 0 24 24" xml:space="preserve"><style>.st1{fill:url(#SVGID_00000018209471400620578350000016294877945466575508_)}.st2{fill:url(#SVGID_00000143578923062498933580000009542025406550444943_)}.st3{fill:url(#SVGID_00000088854311403040360580000006948595349484781197_)}.st4{fill:url(#SVGID_00000137132266461617398380000016953863055625236661_)}.st5{fill:url(#SVGID_00000183207810199283079730000002624690726027175075_)}.st6{fill:url(#SVGID_00000003099510519905563020000003011071776330466963_)}.st7{fill:url(#SVGID_00000057115081413321239800000013844165681341884605_)}.st8{fill:url(#SVGID_00000064326321183525566650000007975914870788074153_)}.st9{fill:url(#SVGID_00000081634025016985591340000001858437032044032413_)}.st10{fill:url(#SVGID_00000145751717003250823300000004600001546865881771_)}</style><linearGradient id="SVGID_1_" gradientUnits="userSpaceOnUse" x1="8.003" y1="5.9712" x2="16.1514" y2="18.539"><stop offset="0" style="stop-color:#fff"/><stop offset=".4623" style="stop-color:#00f2ff"/><stop offset=".9996" style="stop-color:#005bff"/></linearGradient><path d="m12.85 16.64 4.32 2.57-1.51-4.62c-.45.36-.91.71-1.38 1.05-.48.35-.95.68-1.43 1z" style="fill:url(#SVGID_1_)"/><linearGradient id="SVGID_00000121982166085534513660000009762702034120689588_" gradientUnits="userSpaceOnUse" x1="8.0975" y1="5.91" x2="16.2458" y2="18.4778"><stop offset="0" style="stop-color:#fff"/><stop offset=".4623" style="stop-color:#00f2ff"/><stop offset=".9996" style="stop-color:#005bff"/></linearGradient><path style="fill:url(#SVGID_00000121982166085534513660000009762702034120689588_)" d="m8.04 12.96.26.19.83.6-.83 2.87c-.06.03-.13.06-.19.08-.11.05-.23.1-.35.15-1.62.63-2.43.55-2.58.35-.15-.2.03-1.01 1.12-2.37.31-.38.66-.78 1.06-1.18l-.81-.6c-.37.39-.72.78-1.02 1.15-1.31 1.63-1.7 2.84-1.15 3.59.27.38.72.56 1.34.56.54 0 1.21-.14 2-.42.07-.03.15-.06.23-.08.06-.02.11-.04.17-.06.06-.03.13-.05.2-.08 1.31-.53 2.8-1.35 4.31-2.36.4-.27.81-.56 1.21-.85.4-.29.79-.6 1.18-.91 1.36-1.09 2.59-2.26 3.5-3.36.07-.09.14-.17.21-.26.08-.1.15-.19.22-.29 1-1.35 1.44-2.54.91-3.27-.74-1.03-2.93-.5-5.43.78l.3.96c1.78-.93 3.12-1.31 3.82-1.31.27 0 .44.06.51.16.21.3-.21 1.29-1.38 2.68-.08.09-.16.19-.25.29l-3.09.01-.33-.98-.12-.38-.19-.57-.12-.4.07.21.05.15-.12-.36-1.23-3.82-1.98 6.15-6.47-.01 3.32 2.4m6.03 1.31c-1.3.95-2.61 1.77-3.82 2.4l.6-2.07.18-.63-.53-.38-.83-.6-.97-.7-1.09-.79 3.56.01h.68l.21-.65 1.09-3.39.41 1.28.37 1.13.32.98.21.65H16.52c-.85.84-1.93 1.78-3.27 2.76z"/></svg>