<svg version="1.1" id="Layer_1" xmlns="http://www.w3.org/2000/svg" x="0" y="0" viewBox="0 0 24 24" style="enable-background:new 0 0 24 24" xml:space="preserve"><style>.st1{fill:url(#SVGID_00000023996948624220115350000002008393154223102110_)}.st2{fill:url(#SVGID_00000155126367335614974680000015979127433470571699_)}.st3{fill:url(#SVGID_00000015341286700347695100000008344995248236973720_)}.st4{fill:url(#SVGID_00000011710021137127455410000001673202984200376252_)}.st5{fill:url(#SVGID_00000056414055036365949540000011494138027963516820_)}.st6{fill:url(#SVGID_00000001652403177404931850000012143042377965318840_)}.st7{fill:url(#SVGID_00000151531936538327108660000005774865331447201726_)}.st8{fill:url(#SVGID_00000065037403194336489350000008293311216639564679_)}.st9{fill:url(#SVGID_00000104683534343801538020000009937297828526922172_)}.st10{fill:url(#SVGID_00000084531012792407291920000002247400460519350924_)}</style><linearGradient id="SVGID_1_" gradientUnits="userSpaceOnUse" x1="14.5075" y1="4.4898" x2="7.9085" y2="18.5302"><stop offset="0" style="stop-color:#fff"/><stop offset=".4493" style="stop-color:#e5f907"/><stop offset=".9989" style="stop-color:#009444"/></linearGradient><path d="M11.86 6.67c-2.94 0-5.34 2.39-5.34 5.34 0 1.41.55 2.72 1.48 3.69l.8-.87c-.69-.75-1.1-1.74-1.1-2.82 0-2.29 1.87-4.16 4.16-4.16 1.59 0 3.01.9 3.71 2.29h1.28c-.77-2.08-2.75-3.47-4.99-3.47z" style="fill:url(#SVGID_1_)"/><linearGradient id="SVGID_00000164489361834034840440000013562849803162063794_" gradientUnits="userSpaceOnUse" x1="14.439" y1="4.4577" x2="7.8401" y2="18.4981"><stop offset="0" style="stop-color:#fff"/><stop offset=".4493" style="stop-color:#e5f907"/><stop offset=".9989" style="stop-color:#009444"/></linearGradient><path style="fill:url(#SVGID_00000164489361834034840440000013562849803162063794_)" d="M4.96 12.01c0-3.81 3.1-6.91 6.91-6.91 3.16 0 5.83 2.13 6.65 5.03h1.22c-.85-3.56-4.05-6.21-7.86-6.21-4.46 0-8.09 3.63-8.09 8.09 0 2.22.9 4.24 2.36 5.7l.8-.87c-1.23-1.24-1.99-2.95-1.99-4.83z"/><linearGradient id="SVGID_00000116200815274440922340000010664847342247348124_" gradientUnits="userSpaceOnUse" x1="18.4563" y1="6.3458" x2="11.8573" y2="20.3862"><stop offset="0" style="stop-color:#fff"/><stop offset=".4493" style="stop-color:#e5f907"/><stop offset=".9989" style="stop-color:#009444"/></linearGradient><path style="fill:url(#SVGID_00000116200815274440922340000010664847342247348124_)" d="m18.7 15.36-.68.38-.56 2.67h-5.82c-.82 0-1.61-.14-2.34-.41l4.18-4.37v3.31l1.41-.97v-4.85H10.2l-1.06 1.41v.01h3.43L9.93 15.3l-.85.89-1.11 1.16-.82.89c1.28.86 2.82 1.36 4.48 1.36h7l1.08-5.43H15.7v1.18"/></svg>